<svg width="110" height="110" viewBox="0 0 110 110" fill="none" xmlns="http://www.w3.org/2000/svg">
<path d="M14.6695 8.7998C11.4555 8.7998 8.79999 11.4553 8.79999 14.6693V95.3303C8.79999 98.5443 11.4555 101.2 14.6695 101.2H95.3305C98.5445 101.2 101.2 98.5529 101.2 95.3303V14.6693C101.2 11.4553 98.5531 8.7998 95.3305 8.7998H14.6695ZM14.6695 13.1998H95.3305C96.1469 13.1998 96.8 13.8529 96.8 14.6693V95.3303C96.8 96.1467 96.1469 96.7998 95.3305 96.7998H14.6695C13.8531 96.7998 13.2 96.1467 13.2 95.3303V14.6693C13.2 13.8529 13.8531 13.1998 14.6695 13.1998ZM50.6 50.5998V78.2631C50.6 82.5084 48.993 83.5998 46.2 83.5998C43.2781 83.5998 41.25 81.7779 39.9094 79.4147L33 83.5998C35.0024 87.8365 39.9094 92.3998 46.7156 92.3998C54.2438 92.3998 59.4 88.3951 59.4 79.6037V50.5998H50.6ZM77.9969 50.5998C70.5031 50.5998 65.6992 55.3951 65.6992 61.6943C65.6992 68.5264 69.7297 71.7576 75.7883 74.3357L77.8852 75.2381C81.7094 76.9139 83.6 77.9365 83.6 80.8154C83.6 83.2131 81.7782 84.949 78.2977 84.949C74.1555 84.949 72.1961 82.1389 70.4 79.1998L63.8 83.5998C66.2664 88.4725 70.6922 92.3998 78.4867 92.3998C86.4618 92.3998 92.4 88.2577 92.4 80.7037C92.4 73.6912 88.3782 70.5717 81.2367 67.5123L79.1399 66.6186C75.5391 65.0545 73.975 64.0405 73.975 61.5225C73.975 59.4858 75.5391 57.9217 77.9969 57.9217C80.4118 57.9217 81.9586 58.9443 83.3938 61.5225L89.9337 57.3287C87.1751 52.4561 83.3336 50.5998 77.9969 50.5998Z" fill="#00B2FF"/>
</svg>
