<svg width="111" height="111" viewBox="0 0 111 111" fill="none" xmlns="http://www.w3.org/2000/svg">
<path d="M39.5148 15.4722C37.2541 15.4722 35.1574 15.9783 33.3 17.0476C27.4952 20.399 25.2857 28.5661 26.4564 38.7345C17.067 42.8048 11.1 48.7982 11.1 55.5001C11.1 62.2021 17.067 68.1955 26.4564 72.2658C25.2863 82.4338 27.4952 90.6013 33.3 93.9527C35.1537 95.022 37.2504 95.5281 39.5148 95.5281C44.3346 95.5281 49.905 93.1092 55.5 88.9592C61.0954 93.1092 66.6726 95.5281 71.4924 95.5281C73.7531 95.5281 75.8498 95.022 77.7072 93.9527C83.512 90.6013 85.7215 82.4341 84.5508 72.2658C93.9367 68.1955 99.9 62.2006 99.9 55.5001C99.9 48.7982 93.933 42.8048 84.5436 38.7345C85.7137 28.5665 83.5048 20.399 77.7 17.0476C75.8463 15.9746 73.7496 15.4722 71.4852 15.4722C66.6654 15.4722 61.095 17.8911 55.5 22.0411C49.9047 17.8911 44.3329 15.4722 39.5148 15.4722ZM39.5148 21.9472C42.4069 21.9472 46.2313 23.4849 50.3836 26.3337C47.9423 28.6376 45.5512 31.2575 43.251 34.1745C39.52 34.7095 36.0023 35.4894 32.7436 36.4654C32.7261 36.2394 32.6846 36.0022 32.6713 35.7788C32.2754 29.1928 33.7218 24.2834 36.5375 22.6554C37.37 22.1744 38.3419 21.9472 39.5148 21.9472ZM71.4851 21.9472C72.6543 21.9472 73.63 22.1744 74.4625 22.6554C77.2782 24.2797 78.7246 29.1928 78.3287 35.7789C78.3152 36.0023 78.274 36.2394 78.2564 36.4654C74.9957 35.4888 71.4754 34.7096 67.7418 34.1746C65.4415 31.2579 63.0576 28.6374 60.6164 26.3337C64.7683 23.4854 68.5946 21.9472 71.4851 21.9472ZM55.5 30.4456C56.503 31.3586 57.499 32.3235 58.5062 33.3796C57.508 33.3461 56.5152 33.3002 55.5 33.3002C54.4873 33.3002 53.4968 33.3463 52.501 33.3796C53.5073 32.3246 54.4979 31.3577 55.5 30.4456ZM55.5 39.7751C58.5661 39.7751 61.4723 39.9465 64.2297 40.2448C65.9113 42.5305 67.5686 44.947 69.1221 47.6376C70.6111 50.2166 71.9278 52.8564 73.0895 55.5001C71.9276 58.1454 70.612 60.7893 69.1221 63.3699C67.5734 66.0527 65.9203 68.4537 64.2442 70.7337C61.3894 71.0461 58.4608 71.2251 55.5 71.2251C52.4339 71.2251 49.5277 71.0537 46.7704 70.7554C45.0887 68.4698 43.4315 66.0604 41.878 63.3699C40.3881 60.7893 39.0728 58.1454 37.9106 55.5001C39.072 52.8564 40.389 50.2166 41.878 47.6376C43.4272 44.9548 45.0794 42.5466 46.7559 40.2665C49.6107 39.9542 52.5392 39.7751 55.5 39.7751ZM73.0605 41.7769C74.5285 42.1313 75.9397 42.5139 77.2664 42.9404C76.9658 44.2984 76.5982 45.6826 76.1824 47.0812C75.7063 46.1877 75.2445 45.2915 74.7298 44.4001C74.2003 43.4833 73.6124 42.6595 73.0605 41.7769ZM37.9322 41.7841C37.3822 42.664 36.798 43.4862 36.2701 44.4001C35.7555 45.2916 35.2935 46.1876 34.8175 47.0812C34.4007 45.6797 34.0272 44.2939 33.7263 42.9331C35.0774 42.5063 36.4851 42.1283 37.9322 41.7841ZM27.6344 45.3107C28.414 48.6023 29.4954 52.0144 30.8863 55.4929C29.4984 58.9631 28.4215 62.369 27.6416 65.6534C21.1982 62.5419 17.575 58.6687 17.575 55.5001C17.575 52.2478 21.097 48.5414 26.9985 45.5925C27.1999 45.4917 27.4285 45.4091 27.6344 45.3107ZM83.3584 45.3468C89.8018 48.4583 93.425 52.3316 93.425 55.5001C93.425 58.7524 89.903 62.4588 84.0016 65.4077C83.8001 65.5085 83.5714 65.5912 83.3656 65.6896C82.5856 62.3961 81.513 58.9807 80.1209 55.5001C81.5072 52.0329 82.5792 48.6285 83.3584 45.3468ZM55.5 48.1001C51.4115 48.1001 48.1 51.4116 48.1 55.5001C48.1 59.5886 51.4115 62.9001 55.5 62.9001C59.5885 62.9001 62.9 59.5886 62.9 55.5001C62.9 51.4116 59.5885 48.1001 55.5 48.1001ZM34.8176 63.9191C35.2939 64.8129 35.7625 65.7085 36.2773 66.6001C36.8063 67.5163 37.3882 68.3414 37.9395 69.2234C36.4715 68.8689 35.0603 68.4864 33.7336 68.0599C34.0344 66.701 34.4014 65.3186 34.8176 63.9191ZM76.1824 63.9263C76.5987 65.3265 76.973 66.7076 77.2736 68.0671C75.9226 68.494 74.5149 68.872 73.0677 69.2162C73.6177 68.3363 74.202 67.5141 74.7298 66.6001C75.2433 65.7105 75.7073 64.818 76.1824 63.9263ZM32.7436 74.5349C36.0043 75.5115 39.5246 76.2907 43.2582 76.8257C45.5592 79.7438 47.9412 82.3693 50.3836 84.6738C46.2316 87.5217 42.4067 89.0603 39.5148 89.0603C38.3456 89.0603 37.37 88.8259 36.5375 88.3449C33.7218 86.7206 32.2754 81.8147 32.6713 75.2287C32.6848 75.0029 32.7258 74.7633 32.7436 74.5349ZM78.2564 74.5349C78.2741 74.7633 78.3152 75.0029 78.3287 75.2287C78.7246 81.8147 77.2782 86.7169 74.4625 88.3449C73.63 88.8259 72.658 89.0603 71.4851 89.0603C68.5933 89.0603 64.7683 87.5222 60.6164 84.6738C63.0589 82.369 65.4476 79.7442 67.749 76.8257C71.4799 76.2907 74.9977 75.5109 78.2564 74.5349ZM52.4937 77.6207C53.4919 77.6542 54.4848 77.7002 55.5 77.7002C56.5152 77.7002 57.508 77.6542 58.5062 77.6207C57.499 78.6768 56.503 79.6418 55.5 80.5547C54.497 79.6417 53.501 78.6768 52.4937 77.6207Z" fill="#00FFFF"/>
</svg>
