<svg width="110" height="110" viewBox="0 0 110 110" fill="none" xmlns="http://www.w3.org/2000/svg">
<path d="M54.9141 4.40028C54.6468 4.39227 54.3804 4.43304 54.1278 4.5206L8.07815 20.548C7.09948 20.8884 6.49098 21.8656 6.61721 22.8941L13.8918 82.5648C13.978 83.2712 14.4007 83.8924 15.0262 84.2319L53.8485 105.334C54.5066 105.692 55.3016 105.69 55.9582 105.33L94.9824 83.9398C95.6035 83.599 96.0226 82.9801 96.1082 82.2769L103.383 22.6105C103.51 21.577 102.895 20.5961 101.909 20.2601L55.5586 4.51633C55.3508 4.44573 55.1335 4.40657 54.9141 4.40028ZM54.8625 8.92918L98.798 23.8522L91.8758 80.6268L54.8969 100.895L18.1242 80.9061L11.1977 24.1229L54.8625 8.92918ZM55.0774 13.2003C54.1942 13.1699 53.3786 13.6708 53.0063 14.4722L24.4063 76.0722C24.0894 76.7534 24.1421 77.5491 24.5458 78.1826C24.9496 78.8162 25.6488 79.1999 26.4 79.2003H36.1625C37.0178 79.1999 37.7954 78.7038 38.1563 77.9284L43.6863 66.0175H66.3137L71.8438 77.9284C72.2047 78.7038 72.9822 79.1999 73.8375 79.2003H83.6C84.3513 79.1999 85.0504 78.8162 85.4542 78.1827C85.858 77.5491 85.9106 76.7534 85.5938 76.0722L56.9938 14.4722C56.6451 13.7215 55.9045 13.23 55.0774 13.2003ZM55 20.621L80.1539 74.8003H75.2426L69.7125 62.8893C69.3516 62.1139 68.5741 61.6179 67.7188 61.6175H42.2813C41.426 61.6179 40.6484 62.1139 40.2875 62.8893L34.7531 74.8003H29.8461L55 20.621ZM55.0859 34.1003C54.1962 34.0661 53.3735 34.5716 53.0019 35.3807L44.3652 54.1065C44.052 54.7876 44.1071 55.5813 44.5114 56.2125C44.9157 56.8438 45.6136 57.2258 46.3633 57.2261H63.6367C64.3863 57.2258 65.0842 56.8438 65.4886 56.2125C65.8929 55.5813 65.948 54.7876 65.6347 54.1065L56.998 35.3807C56.6525 34.6281 55.9135 34.1332 55.0859 34.1003ZM55 41.5511L60.1992 52.8261H49.8008L55 41.5511Z" fill="#0085FF"/>
</svg>
